<svg width="178" height="70" viewBox="0 0 178 70" fill="none" xmlns="http://www.w3.org/2000/svg">
<g filter="url(#filter0_d_113_1669)">
<rect x="4" width="170" height="47" rx="15" fill="#E5C081"/>
<rect x="4.5" y="0.5" width="169" height="46" rx="14.5" stroke="black"/>
</g>
<rect x="17.5" y="11.5" width="77" height="27" rx="8.5" fill="#D9D9D9"/>
<rect x="17.5" y="11.5" width="77" height="27" rx="8.5" fill="#FDE43D"/>
<rect x="17.5" y="11.5" width="77" height="27" rx="8.5" stroke="black"/>
<path d="M31.944 31.128C31.0907 31.128 30.2747 31 29.496 30.744C28.7173 30.4773 28.104 30.136 27.656 29.72L28.248 28.472C28.6747 28.8453 29.2187 29.1547 29.88 29.4C30.5413 29.6453 31.2293 29.768 31.944 29.768C32.5947 29.768 33.1227 29.6933 33.528 29.544C33.9333 29.3947 34.232 29.192 34.424 28.936C34.616 28.6693 34.712 28.3707 34.712 28.04C34.712 27.656 34.584 27.3467 34.328 27.112C34.0827 26.8773 33.7573 26.6907 33.352 26.552C32.9573 26.4027 32.52 26.2747 32.04 26.168C31.56 26.0613 31.0747 25.9387 30.584 25.8C30.104 25.6507 29.6613 25.464 29.256 25.24C28.8613 25.016 28.5413 24.7173 28.296 24.344C28.0507 23.96 27.928 23.4693 27.928 22.872C27.928 22.296 28.0773 21.768 28.376 21.288C28.6853 20.7973 29.1547 20.408 29.784 20.12C30.424 19.8213 31.2347 19.672 32.216 19.672C32.8667 19.672 33.512 19.7573 34.152 19.928C34.792 20.0987 35.3467 20.344 35.816 20.664L35.288 21.944C34.808 21.624 34.3013 21.3947 33.768 21.256C33.2347 21.1067 32.7173 21.032 32.216 21.032C31.5867 21.032 31.0693 21.112 30.664 21.272C30.2587 21.432 29.96 21.6453 29.768 21.912C29.5867 22.1787 29.496 22.4773 29.496 22.808C29.496 23.2027 29.6187 23.5173 29.864 23.752C30.12 23.9867 30.4453 24.1733 30.84 24.312C31.2453 24.4507 31.688 24.5787 32.168 24.696C32.648 24.8027 33.128 24.9253 33.608 25.064C34.0987 25.2027 34.5413 25.384 34.936 25.608C35.3413 25.832 35.6667 26.1307 35.912 26.504C36.1573 26.8773 36.28 27.3573 36.28 27.944C36.28 28.5093 36.1253 29.0373 35.816 29.528C35.5067 30.008 35.0267 30.3973 34.376 30.696C33.736 30.984 32.9253 31.128 31.944 31.128ZM38.3935 31V22.52H39.9295V31H38.3935ZM39.1615 20.888C38.8628 20.888 38.6122 20.792 38.4095 20.6C38.2175 20.408 38.1215 20.1733 38.1215 19.896C38.1215 19.608 38.2175 19.368 38.4095 19.176C38.6122 18.984 38.8628 18.888 39.1615 18.888C39.4602 18.888 39.7055 18.984 39.8975 19.176C40.1002 19.3573 40.2015 19.5867 40.2015 19.864C40.2015 20.152 40.1055 20.3973 39.9135 20.6C39.7215 20.792 39.4708 20.888 39.1615 20.888ZM46.5743 34.2C45.7956 34.2 45.0383 34.088 44.3023 33.864C43.5769 33.6507 42.9849 33.3413 42.5263 32.936L43.2623 31.752C43.6569 32.0933 44.1423 32.36 44.7183 32.552C45.2943 32.7547 45.8969 32.856 46.5263 32.856C47.5289 32.856 48.2649 32.6213 48.7343 32.152C49.2036 31.6827 49.4383 30.968 49.4383 30.008V28.216L49.5983 26.536L49.5183 24.84V22.52H50.9743V29.848C50.9743 31.3413 50.6009 32.44 49.8542 33.144C49.1076 33.848 48.0143 34.2 46.5743 34.2ZM46.3823 30.648C45.5609 30.648 44.8249 30.4773 44.1743 30.136C43.5343 29.784 43.0223 29.2987 42.6383 28.68C42.2649 28.0613 42.0783 27.3467 42.0783 26.536C42.0783 25.7147 42.2649 25 42.6383 24.392C43.0223 23.7733 43.5343 23.2933 44.1743 22.952C44.8249 22.6107 45.5609 22.44 46.3823 22.44C47.1076 22.44 47.7689 22.5893 48.3663 22.888C48.9636 23.176 49.4383 23.624 49.7903 24.232C50.1529 24.84 50.3343 25.608 50.3343 26.536C50.3343 27.4533 50.1529 28.216 49.7903 28.824C49.4383 29.432 48.9636 29.8907 48.3663 30.2C47.7689 30.4987 47.1076 30.648 46.3823 30.648ZM46.5583 29.304C47.1236 29.304 47.6249 29.1867 48.0623 28.952C48.4996 28.7173 48.8409 28.392 49.0863 27.976C49.3423 27.56 49.4703 27.08 49.4703 26.536C49.4703 25.992 49.3423 25.512 49.0863 25.096C48.8409 24.68 48.4996 24.36 48.0623 24.136C47.6249 23.9013 47.1236 23.784 46.5583 23.784C45.9929 23.784 45.4863 23.9013 45.0383 24.136C44.6009 24.36 44.2543 24.68 43.9983 25.096C43.7529 25.512 43.6303 25.992 43.6303 26.536C43.6303 27.08 43.7529 27.56 43.9983 27.976C44.2543 28.392 44.6009 28.7173 45.0383 28.952C45.4863 29.1867 45.9929 29.304 46.5583 29.304ZM58.4371 22.44C59.1305 22.44 59.7385 22.5733 60.2611 22.84C60.7945 23.1067 61.2105 23.512 61.5091 24.056C61.8078 24.6 61.9571 25.288 61.9571 26.12V31H60.4211V26.296C60.4211 25.4747 60.2185 24.856 59.8131 24.44C59.4185 24.024 58.8585 23.816 58.1331 23.816C57.5891 23.816 57.1145 23.9227 56.7091 24.136C56.3038 24.3493 55.9891 24.664 55.7651 25.08C55.5518 25.496 55.4451 26.0133 55.4451 26.632V31H53.9091V22.52H55.3811V24.808L55.1411 24.2C55.4185 23.6453 55.8451 23.2133 56.4211 22.904C56.9971 22.5947 57.6691 22.44 58.4371 22.44ZM64.2558 27.272V25.944H68.5598V27.272H64.2558ZM70.9248 31V22.52H72.4608V31H70.9248ZM71.6928 20.888C71.3941 20.888 71.1434 20.792 70.9408 20.6C70.7488 20.408 70.6528 20.1733 70.6528 19.896C70.6528 19.608 70.7488 19.368 70.9408 19.176C71.1434 18.984 71.3941 18.888 71.6928 18.888C71.9914 18.888 72.2368 18.984 72.4288 19.176C72.6314 19.3573 72.7328 19.5867 72.7328 19.864C72.7328 20.152 72.6368 20.3973 72.4448 20.6C72.2528 20.792 72.0021 20.888 71.6928 20.888ZM79.9215 22.44C80.6148 22.44 81.2228 22.5733 81.7455 22.84C82.2788 23.1067 82.6948 23.512 82.9935 24.056C83.2922 24.6 83.4415 25.288 83.4415 26.12V31H81.9055V26.296C81.9055 25.4747 81.7028 24.856 81.2975 24.44C80.9028 24.024 80.3428 23.816 79.6175 23.816C79.0735 23.816 78.5988 23.9227 78.1935 24.136C77.7882 24.3493 77.4735 24.664 77.2495 25.08C77.0362 25.496 76.9295 26.0133 76.9295 26.632V31H75.3935V22.52H76.8655V24.808L76.6255 24.2C76.9028 23.6453 77.3295 23.2133 77.9055 22.904C78.4815 22.5947 79.1535 22.44 79.9215 22.44Z" fill="black"/>
<defs>
<filter id="filter0_d_113_1669" x="0" y="0" width="178" height="55" filterUnits="userSpaceOnUse" color-interpolation-filters="sRGB">
<feFlood flood-opacity="0" result="BackgroundImageFix"/>
<feColorMatrix in="SourceAlpha" type="matrix" values="0 0 0 0 0 0 0 0 0 0 0 0 0 0 0 0 0 0 127 0" result="hardAlpha"/>
<feOffset dy="4"/>
<feGaussianBlur stdDeviation="2"/>
<feComposite in2="hardAlpha" operator="out"/>
<feColorMatrix type="matrix" values="0 0 0 0 0 0 0 0 0 0 0 0 0 0 0 0 0 0 0.25 0"/>
<feBlend mode="normal" in2="BackgroundImageFix" result="effect1_dropShadow_113_1669"/>
<feBlend mode="normal" in="SourceGraphic" in2="effect1_dropShadow_113_1669" result="shape"/>
</filter>
</defs>
</svg>
